<?xml version="1.0" standalone="no"?>
<svg xmlns:xlink="http://www.w3.org/1999/xlink" id="wave" style="transform:rotate(180deg); transition: 0.3s" viewBox="0 0 1440 450" version="1.1" xmlns="http://www.w3.org/2000/svg"><defs><linearGradient id="sw-gradient-0" x1="0" x2="0" y1="1" y2="0"><stop stop-color="rgba(255, 188, 255, 0)" offset="0%"/><stop stop-color="rgba(255, 119, 255, 1)" offset="100%"/></linearGradient></defs><path style="transform:translate(0, 0px); opacity:1" fill="url(#sw-gradient-0)" d="M0,315L48,300C96,285,192,255,288,225C384,195,480,165,576,157.5C672,150,768,165,864,150C960,135,1056,90,1152,105C1248,120,1344,195,1440,225C1536,255,1632,240,1728,217.5C1824,195,1920,165,2016,127.5C2112,90,2208,45,2304,67.5C2400,90,2496,180,2592,232.5C2688,285,2784,300,2880,285C2976,270,3072,225,3168,217.5C3264,210,3360,240,3456,240C3552,240,3648,210,3744,187.5C3840,165,3936,150,4032,172.5C4128,195,4224,255,4320,285C4416,315,4512,315,4608,262.5C4704,210,4800,105,4896,67.5C4992,30,5088,60,5184,82.5C5280,105,5376,120,5472,112.5C5568,105,5664,75,5760,60C5856,45,5952,45,6048,105C6144,165,6240,285,6336,292.5C6432,300,6528,195,6624,180C6720,165,6816,240,6864,277.5L6912,315L6912,450L6864,450C6816,450,6720,450,6624,450C6528,450,6432,450,6336,450C6240,450,6144,450,6048,450C5952,450,5856,450,5760,450C5664,450,5568,450,5472,450C5376,450,5280,450,5184,450C5088,450,4992,450,4896,450C4800,450,4704,450,4608,450C4512,450,4416,450,4320,450C4224,450,4128,450,4032,450C3936,450,3840,450,3744,450C3648,450,3552,450,3456,450C3360,450,3264,450,3168,450C3072,450,2976,450,2880,450C2784,450,2688,450,2592,450C2496,450,2400,450,2304,450C2208,450,2112,450,2016,450C1920,450,1824,450,1728,450C1632,450,1536,450,1440,450C1344,450,1248,450,1152,450C1056,450,960,450,864,450C768,450,672,450,576,450C480,450,384,450,288,450C192,450,96,450,48,450L0,450Z"/><defs><linearGradient id="sw-gradient-1" x1="0" x2="0" y1="1" y2="0"><stop stop-color="rgba(145, 209, 207, 1)" offset="0%"/><stop stop-color="rgba(92, 166, 159, 1)" offset="100%"/></linearGradient></defs><path style="transform:translate(0, 50px); opacity:0.9" fill="url(#sw-gradient-1)" d="M0,135L48,127.5C96,120,192,105,288,135C384,165,480,240,576,225C672,210,768,105,864,75C960,45,1056,90,1152,142.5C1248,195,1344,255,1440,247.5C1536,240,1632,165,1728,127.5C1824,90,1920,90,2016,105C2112,120,2208,150,2304,202.5C2400,255,2496,330,2592,315C2688,300,2784,195,2880,165C2976,135,3072,180,3168,165C3264,150,3360,75,3456,90C3552,105,3648,210,3744,225C3840,240,3936,165,4032,172.5C4128,180,4224,270,4320,277.5C4416,285,4512,210,4608,172.5C4704,135,4800,135,4896,165C4992,195,5088,255,5184,255C5280,255,5376,195,5472,157.5C5568,120,5664,105,5760,90C5856,75,5952,60,6048,90C6144,120,6240,195,6336,255C6432,315,6528,360,6624,337.5C6720,315,6816,225,6864,180L6912,135L6912,450L6864,450C6816,450,6720,450,6624,450C6528,450,6432,450,6336,450C6240,450,6144,450,6048,450C5952,450,5856,450,5760,450C5664,450,5568,450,5472,450C5376,450,5280,450,5184,450C5088,450,4992,450,4896,450C4800,450,4704,450,4608,450C4512,450,4416,450,4320,450C4224,450,4128,450,4032,450C3936,450,3840,450,3744,450C3648,450,3552,450,3456,450C3360,450,3264,450,3168,450C3072,450,2976,450,2880,450C2784,450,2688,450,2592,450C2496,450,2400,450,2304,450C2208,450,2112,450,2016,450C1920,450,1824,450,1728,450C1632,450,1536,450,1440,450C1344,450,1248,450,1152,450C1056,450,960,450,864,450C768,450,672,450,576,450C480,450,384,450,288,450C192,450,96,450,48,450L0,450Z"/></svg>