<?xml version="1.0" standalone="no"?>
<svg xmlns:xlink="http://www.w3.org/1999/xlink" id="wave" style="transform:rotate(180deg); transition: 0.3s" viewBox="0 0 1440 450" version="1.1" xmlns="http://www.w3.org/2000/svg"><defs><linearGradient id="sw-gradient-0" x1="0" x2="0" y1="1" y2="0"><stop stop-color="rgba(255, 188, 255, 0)" offset="0%"/><stop stop-color="rgba(255, 119, 255, 1)" offset="100%"/></linearGradient></defs><path style="transform:translate(0, 0px); opacity:1" fill="url(#sw-gradient-0)" d="M0,90L48,105C96,120,192,150,288,180C384,210,480,240,576,277.5C672,315,768,360,864,337.5C960,315,1056,225,1152,180C1248,135,1344,135,1440,180C1536,225,1632,315,1728,337.5C1824,360,1920,315,2016,277.5C2112,240,2208,210,2304,202.5C2400,195,2496,210,2592,202.5C2688,195,2784,165,2880,172.5C2976,180,3072,225,3168,217.5C3264,210,3360,150,3456,165C3552,180,3648,270,3744,300C3840,330,3936,300,4032,247.5C4128,195,4224,120,4320,82.5C4416,45,4512,45,4608,67.5C4704,90,4800,135,4896,187.5C4992,240,5088,300,5184,292.5C5280,285,5376,210,5472,180C5568,150,5664,165,5760,150C5856,135,5952,90,6048,67.5C6144,45,6240,45,6336,52.5C6432,60,6528,75,6624,127.5C6720,180,6816,270,6864,315L6912,360L6912,450L6864,450C6816,450,6720,450,6624,450C6528,450,6432,450,6336,450C6240,450,6144,450,6048,450C5952,450,5856,450,5760,450C5664,450,5568,450,5472,450C5376,450,5280,450,5184,450C5088,450,4992,450,4896,450C4800,450,4704,450,4608,450C4512,450,4416,450,4320,450C4224,450,4128,450,4032,450C3936,450,3840,450,3744,450C3648,450,3552,450,3456,450C3360,450,3264,450,3168,450C3072,450,2976,450,2880,450C2784,450,2688,450,2592,450C2496,450,2400,450,2304,450C2208,450,2112,450,2016,450C1920,450,1824,450,1728,450C1632,450,1536,450,1440,450C1344,450,1248,450,1152,450C1056,450,960,450,864,450C768,450,672,450,576,450C480,450,384,450,288,450C192,450,96,450,48,450L0,450Z"/><defs><linearGradient id="sw-gradient-1" x1="0" x2="0" y1="1" y2="0"><stop stop-color="rgba(145, 209, 207, 1)" offset="0%"/><stop stop-color="rgba(92, 166, 159, 1)" offset="100%"/></linearGradient></defs><path style="transform:translate(0, 50px); opacity:0.9" fill="url(#sw-gradient-1)" d="M0,360L48,360C96,360,192,360,288,315C384,270,480,180,576,180C672,180,768,270,864,277.5C960,285,1056,210,1152,187.5C1248,165,1344,195,1440,180C1536,165,1632,105,1728,75C1824,45,1920,45,2016,37.5C2112,30,2208,15,2304,15C2400,15,2496,30,2592,75C2688,120,2784,195,2880,240C2976,285,3072,300,3168,277.5C3264,255,3360,195,3456,172.5C3552,150,3648,165,3744,202.5C3840,240,3936,300,4032,285C4128,270,4224,180,4320,150C4416,120,4512,150,4608,150C4704,150,4800,120,4896,135C4992,150,5088,210,5184,255C5280,300,5376,330,5472,352.5C5568,375,5664,390,5760,345C5856,300,5952,195,6048,150C6144,105,6240,120,6336,127.5C6432,135,6528,135,6624,112.5C6720,90,6816,45,6864,22.5L6912,0L6912,450L6864,450C6816,450,6720,450,6624,450C6528,450,6432,450,6336,450C6240,450,6144,450,6048,450C5952,450,5856,450,5760,450C5664,450,5568,450,5472,450C5376,450,5280,450,5184,450C5088,450,4992,450,4896,450C4800,450,4704,450,4608,450C4512,450,4416,450,4320,450C4224,450,4128,450,4032,450C3936,450,3840,450,3744,450C3648,450,3552,450,3456,450C3360,450,3264,450,3168,450C3072,450,2976,450,2880,450C2784,450,2688,450,2592,450C2496,450,2400,450,2304,450C2208,450,2112,450,2016,450C1920,450,1824,450,1728,450C1632,450,1536,450,1440,450C1344,450,1248,450,1152,450C1056,450,960,450,864,450C768,450,672,450,576,450C480,450,384,450,288,450C192,450,96,450,48,450L0,450Z"/></svg>