<?xml version="1.0" standalone="no"?>
<svg xmlns:xlink="http://www.w3.org/1999/xlink" id="wave" style="transform:rotate(180deg); transition: 0.3s" viewBox="0 0 1440 450" version="1.1" xmlns="http://www.w3.org/2000/svg"><defs><linearGradient id="sw-gradient-0" x1="0" x2="0" y1="1" y2="0"><stop stop-color="rgba(255, 188, 255, 0)" offset="0%"/><stop stop-color="rgba(255, 119, 255, 1)" offset="100%"/></linearGradient></defs><path style="transform:translate(0, 0px); opacity:1" fill="url(#sw-gradient-0)" d="M0,45L48,60C96,75,192,105,288,165C384,225,480,315,576,300C672,285,768,165,864,112.5C960,60,1056,75,1152,127.5C1248,180,1344,270,1440,322.5C1536,375,1632,390,1728,330C1824,270,1920,135,2016,112.5C2112,90,2208,180,2304,225C2400,270,2496,270,2592,262.5C2688,255,2784,240,2880,232.5C2976,225,3072,225,3168,255C3264,285,3360,345,3456,337.5C3552,330,3648,255,3744,255C3840,255,3936,330,4032,337.5C4128,345,4224,285,4320,262.5C4416,240,4512,255,4608,270C4704,285,4800,300,4896,315C4992,330,5088,345,5184,352.5C5280,360,5376,360,5472,307.5C5568,255,5664,150,5760,97.5C5856,45,5952,45,6048,90C6144,135,6240,225,6336,262.5C6432,300,6528,285,6624,270C6720,255,6816,240,6864,232.5L6912,225L6912,450L6864,450C6816,450,6720,450,6624,450C6528,450,6432,450,6336,450C6240,450,6144,450,6048,450C5952,450,5856,450,5760,450C5664,450,5568,450,5472,450C5376,450,5280,450,5184,450C5088,450,4992,450,4896,450C4800,450,4704,450,4608,450C4512,450,4416,450,4320,450C4224,450,4128,450,4032,450C3936,450,3840,450,3744,450C3648,450,3552,450,3456,450C3360,450,3264,450,3168,450C3072,450,2976,450,2880,450C2784,450,2688,450,2592,450C2496,450,2400,450,2304,450C2208,450,2112,450,2016,450C1920,450,1824,450,1728,450C1632,450,1536,450,1440,450C1344,450,1248,450,1152,450C1056,450,960,450,864,450C768,450,672,450,576,450C480,450,384,450,288,450C192,450,96,450,48,450L0,450Z"/><defs><linearGradient id="sw-gradient-1" x1="0" x2="0" y1="1" y2="0"><stop stop-color="rgba(145, 209, 207, 1)" offset="0%"/><stop stop-color="rgba(92, 166, 159, 1)" offset="100%"/></linearGradient></defs><path style="transform:translate(0, 50px); opacity:0.9" fill="url(#sw-gradient-1)" d="M0,225L48,195C96,165,192,105,288,67.5C384,30,480,15,576,30C672,45,768,90,864,105C960,120,1056,105,1152,97.5C1248,90,1344,90,1440,127.5C1536,165,1632,240,1728,285C1824,330,1920,345,2016,322.5C2112,300,2208,240,2304,202.5C2400,165,2496,150,2592,120C2688,90,2784,45,2880,82.5C2976,120,3072,240,3168,300C3264,360,3360,360,3456,315C3552,270,3648,180,3744,180C3840,180,3936,270,4032,255C4128,240,4224,120,4320,60C4416,0,4512,0,4608,60C4704,120,4800,240,4896,285C4992,330,5088,300,5184,247.5C5280,195,5376,120,5472,97.5C5568,75,5664,105,5760,165C5856,225,5952,315,6048,360C6144,405,6240,405,6336,345C6432,285,6528,165,6624,127.5C6720,90,6816,135,6864,157.5L6912,180L6912,450L6864,450C6816,450,6720,450,6624,450C6528,450,6432,450,6336,450C6240,450,6144,450,6048,450C5952,450,5856,450,5760,450C5664,450,5568,450,5472,450C5376,450,5280,450,5184,450C5088,450,4992,450,4896,450C4800,450,4704,450,4608,450C4512,450,4416,450,4320,450C4224,450,4128,450,4032,450C3936,450,3840,450,3744,450C3648,450,3552,450,3456,450C3360,450,3264,450,3168,450C3072,450,2976,450,2880,450C2784,450,2688,450,2592,450C2496,450,2400,450,2304,450C2208,450,2112,450,2016,450C1920,450,1824,450,1728,450C1632,450,1536,450,1440,450C1344,450,1248,450,1152,450C1056,450,960,450,864,450C768,450,672,450,576,450C480,450,384,450,288,450C192,450,96,450,48,450L0,450Z"/></svg>