<?xml version="1.0" standalone="no"?>
<svg xmlns:xlink="http://www.w3.org/1999/xlink" id="wave" style="transform:rotate(180deg); transition: 0.3s" viewBox="0 0 1440 210" version="1.1" xmlns="http://www.w3.org/2000/svg"><defs><linearGradient id="sw-gradient-0" x1="0" x2="0" y1="1" y2="0"><stop stop-color="rgba(255, 188, 255, 0)" offset="0%"/><stop stop-color="rgba(255, 119, 255, 1)" offset="100%"/></linearGradient></defs><path style="transform:translate(0, 0px); opacity:1" fill="url(#sw-gradient-0)" d="M0,63L48,52.5C96,42,192,21,288,10.5C384,0,480,0,576,17.5C672,35,768,70,864,84C960,98,1056,91,1152,101.5C1248,112,1344,140,1440,129.5C1536,119,1632,70,1728,66.5C1824,63,1920,105,2016,133C2112,161,2208,175,2304,150.5C2400,126,2496,63,2592,42C2688,21,2784,42,2880,52.5C2976,63,3072,63,3168,77C3264,91,3360,119,3456,140C3552,161,3648,175,3744,157.5C3840,140,3936,91,4032,91C4128,91,4224,140,4320,150.5C4416,161,4512,133,4608,119C4704,105,4800,105,4896,91C4992,77,5088,49,5184,63C5280,77,5376,133,5472,133C5568,133,5664,77,5760,77C5856,77,5952,133,6048,133C6144,133,6240,77,6336,56C6432,35,6528,49,6624,66.5C6720,84,6816,105,6864,115.5L6912,126L6912,210L6864,210C6816,210,6720,210,6624,210C6528,210,6432,210,6336,210C6240,210,6144,210,6048,210C5952,210,5856,210,5760,210C5664,210,5568,210,5472,210C5376,210,5280,210,5184,210C5088,210,4992,210,4896,210C4800,210,4704,210,4608,210C4512,210,4416,210,4320,210C4224,210,4128,210,4032,210C3936,210,3840,210,3744,210C3648,210,3552,210,3456,210C3360,210,3264,210,3168,210C3072,210,2976,210,2880,210C2784,210,2688,210,2592,210C2496,210,2400,210,2304,210C2208,210,2112,210,2016,210C1920,210,1824,210,1728,210C1632,210,1536,210,1440,210C1344,210,1248,210,1152,210C1056,210,960,210,864,210C768,210,672,210,576,210C480,210,384,210,288,210C192,210,96,210,48,210L0,210Z"/><defs><linearGradient id="sw-gradient-1" x1="0" x2="0" y1="1" y2="0"><stop stop-color="rgba(145, 209, 207, 1)" offset="0%"/><stop stop-color="rgba(92, 166, 159, 1)" offset="100%"/></linearGradient></defs><path style="transform:translate(0, 50px); opacity:0.9" fill="url(#sw-gradient-1)" d="M0,0L48,17.5C96,35,192,70,288,98C384,126,480,147,576,133C672,119,768,70,864,63C960,56,1056,91,1152,98C1248,105,1344,84,1440,80.5C1536,77,1632,91,1728,98C1824,105,1920,105,2016,94.5C2112,84,2208,63,2304,59.5C2400,56,2496,70,2592,94.5C2688,119,2784,154,2880,164.5C2976,175,3072,161,3168,136.5C3264,112,3360,77,3456,77C3552,77,3648,112,3744,119C3840,126,3936,105,4032,94.5C4128,84,4224,84,4320,80.5C4416,77,4512,70,4608,73.5C4704,77,4800,91,4896,87.5C4992,84,5088,63,5184,49C5280,35,5376,28,5472,42C5568,56,5664,91,5760,87.5C5856,84,5952,42,6048,52.5C6144,63,6240,126,6336,129.5C6432,133,6528,77,6624,73.5C6720,70,6816,119,6864,143.5L6912,168L6912,210L6864,210C6816,210,6720,210,6624,210C6528,210,6432,210,6336,210C6240,210,6144,210,6048,210C5952,210,5856,210,5760,210C5664,210,5568,210,5472,210C5376,210,5280,210,5184,210C5088,210,4992,210,4896,210C4800,210,4704,210,4608,210C4512,210,4416,210,4320,210C4224,210,4128,210,4032,210C3936,210,3840,210,3744,210C3648,210,3552,210,3456,210C3360,210,3264,210,3168,210C3072,210,2976,210,2880,210C2784,210,2688,210,2592,210C2496,210,2400,210,2304,210C2208,210,2112,210,2016,210C1920,210,1824,210,1728,210C1632,210,1536,210,1440,210C1344,210,1248,210,1152,210C1056,210,960,210,864,210C768,210,672,210,576,210C480,210,384,210,288,210C192,210,96,210,48,210L0,210Z"/></svg>