<?xml version="1.0" standalone="no"?>
<svg xmlns:xlink="http://www.w3.org/1999/xlink" id="wave" style="transform:rotate(0deg); transition: 0.3s" viewBox="0 0 1440 100" version="1.1" xmlns="http://www.w3.org/2000/svg"><defs><linearGradient id="sw-gradient-0" x1="0" x2="0" y1="1" y2="0"><stop stop-color="rgba(255, 188, 255, 0)" offset="0%"/><stop stop-color="rgba(255, 119, 255, 1)" offset="100%"/></linearGradient></defs><path style="transform:translate(0, 0px); opacity:1" fill="url(#sw-gradient-0)" d="M0,20L18.5,20C36.9,20,74,20,111,20C147.7,20,185,20,222,26.7C258.5,33,295,47,332,58.3C369.2,70,406,80,443,76.7C480,73,517,57,554,48.3C590.8,40,628,40,665,33.3C701.5,27,738,13,775,16.7C812.3,20,849,40,886,48.3C923.1,57,960,53,997,55C1033.8,57,1071,63,1108,60C1144.6,57,1182,43,1218,38.3C1255.4,33,1292,37,1329,46.7C1366.2,57,1403,73,1440,73.3C1476.9,73,1514,57,1551,43.3C1587.7,30,1625,20,1662,15C1698.5,10,1735,10,1772,13.3C1809.2,17,1846,23,1883,25C1920,27,1957,23,1994,26.7C2030.8,30,2068,40,2105,50C2141.5,60,2178,70,2215,73.3C2252.3,77,2289,73,2326,65C2363.1,57,2400,43,2437,46.7C2473.8,50,2511,70,2548,73.3C2584.6,77,2622,63,2640,56.7L2658.5,50L2658.5,100L2640,100C2621.5,100,2585,100,2548,100C2510.8,100,2474,100,2437,100C2400,100,2363,100,2326,100C2289.2,100,2252,100,2215,100C2178.5,100,2142,100,2105,100C2067.7,100,2031,100,1994,100C1956.9,100,1920,100,1883,100C1846.2,100,1809,100,1772,100C1735.4,100,1698,100,1662,100C1624.6,100,1588,100,1551,100C1513.8,100,1477,100,1440,100C1403.1,100,1366,100,1329,100C1292.3,100,1255,100,1218,100C1181.5,100,1145,100,1108,100C1070.8,100,1034,100,997,100C960,100,923,100,886,100C849.2,100,812,100,775,100C738.5,100,702,100,665,100C627.7,100,591,100,554,100C516.9,100,480,100,443,100C406.2,100,369,100,332,100C295.4,100,258,100,222,100C184.6,100,148,100,111,100C73.8,100,37,100,18,100L0,100Z"/><defs><linearGradient id="sw-gradient-1" x1="0" x2="0" y1="1" y2="0"><stop stop-color="rgba(145, 209, 207, 1)" offset="0%"/><stop stop-color="rgba(92, 166, 159, 1)" offset="100%"/></linearGradient></defs><path style="transform:translate(0, 50px); opacity:0.9" fill="url(#sw-gradient-1)" d="M0,50L18.5,48.3C36.9,47,74,43,111,35C147.7,27,185,13,222,15C258.5,17,295,33,332,38.3C369.2,43,406,37,443,35C480,33,517,37,554,33.3C590.8,30,628,20,665,26.7C701.5,33,738,57,775,63.3C812.3,70,849,60,886,50C923.1,40,960,30,997,35C1033.8,40,1071,60,1108,68.3C1144.6,77,1182,73,1218,66.7C1255.4,60,1292,50,1329,40C1366.2,30,1403,20,1440,18.3C1476.9,17,1514,23,1551,21.7C1587.7,20,1625,10,1662,15C1698.5,20,1735,40,1772,46.7C1809.2,53,1846,47,1883,41.7C1920,37,1957,33,1994,38.3C2030.8,43,2068,57,2105,61.7C2141.5,67,2178,63,2215,51.7C2252.3,40,2289,20,2326,11.7C2363.1,3,2400,7,2437,18.3C2473.8,30,2511,50,2548,56.7C2584.6,63,2622,57,2640,53.3L2658.5,50L2658.5,100L2640,100C2621.5,100,2585,100,2548,100C2510.8,100,2474,100,2437,100C2400,100,2363,100,2326,100C2289.2,100,2252,100,2215,100C2178.5,100,2142,100,2105,100C2067.7,100,2031,100,1994,100C1956.9,100,1920,100,1883,100C1846.2,100,1809,100,1772,100C1735.4,100,1698,100,1662,100C1624.6,100,1588,100,1551,100C1513.8,100,1477,100,1440,100C1403.1,100,1366,100,1329,100C1292.3,100,1255,100,1218,100C1181.5,100,1145,100,1108,100C1070.8,100,1034,100,997,100C960,100,923,100,886,100C849.2,100,812,100,775,100C738.5,100,702,100,665,100C627.7,100,591,100,554,100C516.9,100,480,100,443,100C406.2,100,369,100,332,100C295.4,100,258,100,222,100C184.6,100,148,100,111,100C73.8,100,37,100,18,100L0,100Z"/></svg>