<?xml version="1.0" standalone="no"?>
<svg xmlns:xlink="http://www.w3.org/1999/xlink" id="wave" style="transform:rotate(180deg); transition: 0.3s" viewBox="0 0 1440 350" version="1.1" xmlns="http://www.w3.org/2000/svg"><defs><linearGradient id="sw-gradient-0" x1="0" x2="0" y1="1" y2="0"><stop stop-color="rgba(255, 188, 255, 0)" offset="0%"/><stop stop-color="rgba(255, 119, 255, 1)" offset="100%"/></linearGradient></defs><path style="transform:translate(0, 0px); opacity:1" fill="url(#sw-gradient-0)" d="M0,140L48,145.8C96,152,192,163,288,151.7C384,140,480,105,576,116.7C672,128,768,187,864,221.7C960,257,1056,268,1152,227.5C1248,187,1344,93,1440,58.3C1536,23,1632,47,1728,87.5C1824,128,1920,187,2016,192.5C2112,198,2208,152,2304,140C2400,128,2496,152,2592,175C2688,198,2784,222,2880,215.8C2976,210,3072,175,3168,180.8C3264,187,3360,233,3456,233.3C3552,233,3648,187,3744,175C3840,163,3936,187,4032,175C4128,163,4224,117,4320,122.5C4416,128,4512,187,4608,210C4704,233,4800,222,4896,221.7C4992,222,5088,233,5184,215.8C5280,198,5376,152,5472,157.5C5568,163,5664,222,5760,215.8C5856,210,5952,140,6048,105C6144,70,6240,70,6336,58.3C6432,47,6528,23,6624,58.3C6720,93,6816,187,6864,233.3L6912,280L6912,350L6864,350C6816,350,6720,350,6624,350C6528,350,6432,350,6336,350C6240,350,6144,350,6048,350C5952,350,5856,350,5760,350C5664,350,5568,350,5472,350C5376,350,5280,350,5184,350C5088,350,4992,350,4896,350C4800,350,4704,350,4608,350C4512,350,4416,350,4320,350C4224,350,4128,350,4032,350C3936,350,3840,350,3744,350C3648,350,3552,350,3456,350C3360,350,3264,350,3168,350C3072,350,2976,350,2880,350C2784,350,2688,350,2592,350C2496,350,2400,350,2304,350C2208,350,2112,350,2016,350C1920,350,1824,350,1728,350C1632,350,1536,350,1440,350C1344,350,1248,350,1152,350C1056,350,960,350,864,350C768,350,672,350,576,350C480,350,384,350,288,350C192,350,96,350,48,350L0,350Z"/><defs><linearGradient id="sw-gradient-1" x1="0" x2="0" y1="1" y2="0"><stop stop-color="rgba(145, 209, 207, 0.67)" offset="0%"/><stop stop-color="rgba(92, 166, 159, 1)" offset="100%"/></linearGradient></defs><path style="transform:translate(0, 50px); opacity:0.9" fill="url(#sw-gradient-1)" d="M0,175L48,186.7C96,198,192,222,288,210C384,198,480,152,576,116.7C672,82,768,58,864,87.5C960,117,1056,198,1152,233.3C1248,268,1344,257,1440,227.5C1536,198,1632,152,1728,116.7C1824,82,1920,58,2016,52.5C2112,47,2208,58,2304,93.3C2400,128,2496,187,2592,227.5C2688,268,2784,292,2880,285.8C2976,280,3072,245,3168,233.3C3264,222,3360,233,3456,215.8C3552,198,3648,152,3744,151.7C3840,152,3936,198,4032,227.5C4128,257,4224,268,4320,227.5C4416,187,4512,93,4608,52.5C4704,12,4800,23,4896,40.8C4992,58,5088,82,5184,99.2C5280,117,5376,128,5472,110.8C5568,93,5664,47,5760,75.8C5856,105,5952,210,6048,256.7C6144,303,6240,292,6336,239.2C6432,187,6528,93,6624,70C6720,47,6816,93,6864,116.7L6912,140L6912,350L6864,350C6816,350,6720,350,6624,350C6528,350,6432,350,6336,350C6240,350,6144,350,6048,350C5952,350,5856,350,5760,350C5664,350,5568,350,5472,350C5376,350,5280,350,5184,350C5088,350,4992,350,4896,350C4800,350,4704,350,4608,350C4512,350,4416,350,4320,350C4224,350,4128,350,4032,350C3936,350,3840,350,3744,350C3648,350,3552,350,3456,350C3360,350,3264,350,3168,350C3072,350,2976,350,2880,350C2784,350,2688,350,2592,350C2496,350,2400,350,2304,350C2208,350,2112,350,2016,350C1920,350,1824,350,1728,350C1632,350,1536,350,1440,350C1344,350,1248,350,1152,350C1056,350,960,350,864,350C768,350,672,350,576,350C480,350,384,350,288,350C192,350,96,350,48,350L0,350Z"/></svg>