<?xml version="1.0" standalone="no"?>
<svg xmlns:xlink="http://www.w3.org/1999/xlink" id="wave" style="transform:rotate(0deg); transition: 0.3s" viewBox="0 0 1440 350" version="1.1" xmlns="http://www.w3.org/2000/svg"><defs><linearGradient id="sw-gradient-0" x1="0" x2="0" y1="1" y2="0"><stop stop-color="rgba(255, 188, 255, 0)" offset="0%"/><stop stop-color="rgba(255, 119, 255, 1)" offset="100%"/></linearGradient></defs><path style="transform:translate(0, 0px); opacity:1" fill="url(#sw-gradient-0)" d="M0,105L48,122.5C96,140,192,175,288,169.2C384,163,480,117,576,81.7C672,47,768,23,864,52.5C960,82,1056,163,1152,169.2C1248,175,1344,105,1440,64.2C1536,23,1632,12,1728,58.3C1824,105,1920,210,2016,221.7C2112,233,2208,152,2304,134.2C2400,117,2496,163,2592,157.5C2688,152,2784,93,2880,110.8C2976,128,3072,222,3168,233.3C3264,245,3360,175,3456,134.2C3552,93,3648,82,3744,75.8C3840,70,3936,70,4032,64.2C4128,58,4224,47,4320,35C4416,23,4512,12,4608,17.5C4704,23,4800,47,4896,75.8C4992,105,5088,140,5184,163.3C5280,187,5376,198,5472,180.8C5568,163,5664,117,5760,128.3C5856,140,5952,210,6048,233.3C6144,257,6240,233,6336,198.3C6432,163,6528,117,6624,122.5C6720,128,6816,187,6864,215.8L6912,245L6912,350L6864,350C6816,350,6720,350,6624,350C6528,350,6432,350,6336,350C6240,350,6144,350,6048,350C5952,350,5856,350,5760,350C5664,350,5568,350,5472,350C5376,350,5280,350,5184,350C5088,350,4992,350,4896,350C4800,350,4704,350,4608,350C4512,350,4416,350,4320,350C4224,350,4128,350,4032,350C3936,350,3840,350,3744,350C3648,350,3552,350,3456,350C3360,350,3264,350,3168,350C3072,350,2976,350,2880,350C2784,350,2688,350,2592,350C2496,350,2400,350,2304,350C2208,350,2112,350,2016,350C1920,350,1824,350,1728,350C1632,350,1536,350,1440,350C1344,350,1248,350,1152,350C1056,350,960,350,864,350C768,350,672,350,576,350C480,350,384,350,288,350C192,350,96,350,48,350L0,350Z"/><defs><linearGradient id="sw-gradient-1" x1="0" x2="0" y1="1" y2="0"><stop stop-color="rgba(145, 209, 207, 0.67)" offset="0%"/><stop stop-color="rgba(92, 166, 159, 1)" offset="100%"/></linearGradient></defs><path style="transform:translate(0, 50px); opacity:0.9" fill="url(#sw-gradient-1)" d="M0,35L48,75.8C96,117,192,198,288,192.5C384,187,480,93,576,93.3C672,93,768,187,864,186.7C960,187,1056,93,1152,81.7C1248,70,1344,140,1440,151.7C1536,163,1632,117,1728,99.2C1824,82,1920,93,2016,87.5C2112,82,2208,58,2304,52.5C2400,47,2496,58,2592,75.8C2688,93,2784,117,2880,122.5C2976,128,3072,117,3168,140C3264,163,3360,222,3456,210C3552,198,3648,117,3744,122.5C3840,128,3936,222,4032,227.5C4128,233,4224,152,4320,99.2C4416,47,4512,23,4608,40.8C4704,58,4800,117,4896,163.3C4992,210,5088,245,5184,233.3C5280,222,5376,163,5472,122.5C5568,82,5664,58,5760,75.8C5856,93,5952,152,6048,175C6144,198,6240,187,6336,198.3C6432,210,6528,245,6624,256.7C6720,268,6816,257,6864,250.8L6912,245L6912,350L6864,350C6816,350,6720,350,6624,350C6528,350,6432,350,6336,350C6240,350,6144,350,6048,350C5952,350,5856,350,5760,350C5664,350,5568,350,5472,350C5376,350,5280,350,5184,350C5088,350,4992,350,4896,350C4800,350,4704,350,4608,350C4512,350,4416,350,4320,350C4224,350,4128,350,4032,350C3936,350,3840,350,3744,350C3648,350,3552,350,3456,350C3360,350,3264,350,3168,350C3072,350,2976,350,2880,350C2784,350,2688,350,2592,350C2496,350,2400,350,2304,350C2208,350,2112,350,2016,350C1920,350,1824,350,1728,350C1632,350,1536,350,1440,350C1344,350,1248,350,1152,350C1056,350,960,350,864,350C768,350,672,350,576,350C480,350,384,350,288,350C192,350,96,350,48,350L0,350Z"/></svg>