<?xml version="1.0" standalone="no"?>
<svg xmlns:xlink="http://www.w3.org/1999/xlink" id="wave" style="transform:rotate(180deg); transition: 0.3s" viewBox="0 0 1440 490" version="1.1" xmlns="http://www.w3.org/2000/svg"><defs><linearGradient id="sw-gradient-0" x1="0" x2="0" y1="1" y2="0"><stop stop-color="rgba(255, 188, 255, 0)" offset="0%"/><stop stop-color="rgba(255, 119, 255, 1)" offset="100%"/></linearGradient></defs><path style="transform:translate(0, 0px); opacity:1" fill="url(#sw-gradient-0)" d="M0,147L40,155.2C80,163,160,180,240,155.2C320,131,400,65,480,65.3C560,65,640,131,720,130.7C800,131,880,65,960,81.7C1040,98,1120,196,1200,220.5C1280,245,1360,196,1440,147C1520,98,1600,49,1680,89.8C1760,131,1840,261,1920,277.7C2000,294,2080,196,2160,130.7C2240,65,2320,33,2400,49C2480,65,2560,131,2640,171.5C2720,212,2800,229,2880,228.7C2960,229,3040,212,3120,204.2C3200,196,3280,196,3360,228.7C3440,261,3520,327,3600,351.2C3680,376,3760,359,3840,334.8C3920,310,4000,278,4080,261.3C4160,245,4240,245,4320,269.5C4400,294,4480,343,4560,351.2C4640,359,4720,327,4800,285.8C4880,245,4960,196,5040,163.3C5120,131,5200,114,5280,163.3C5360,212,5440,327,5520,375.7C5600,425,5680,408,5720,400.2L5760,392L5760,490L5720,490C5680,490,5600,490,5520,490C5440,490,5360,490,5280,490C5200,490,5120,490,5040,490C4960,490,4880,490,4800,490C4720,490,4640,490,4560,490C4480,490,4400,490,4320,490C4240,490,4160,490,4080,490C4000,490,3920,490,3840,490C3760,490,3680,490,3600,490C3520,490,3440,490,3360,490C3280,490,3200,490,3120,490C3040,490,2960,490,2880,490C2800,490,2720,490,2640,490C2560,490,2480,490,2400,490C2320,490,2240,490,2160,490C2080,490,2000,490,1920,490C1840,490,1760,490,1680,490C1600,490,1520,490,1440,490C1360,490,1280,490,1200,490C1120,490,1040,490,960,490C880,490,800,490,720,490C640,490,560,490,480,490C400,490,320,490,240,490C160,490,80,490,40,490L0,490Z"/><defs><linearGradient id="sw-gradient-1" x1="0" x2="0" y1="1" y2="0"><stop stop-color="rgba(145, 209, 207, 1)" offset="0%"/><stop stop-color="rgba(92, 166, 159, 1)" offset="100%"/></linearGradient></defs><path style="transform:translate(0, 50px); opacity:0.9" fill="url(#sw-gradient-1)" d="M0,147L40,196C80,245,160,343,240,367.5C320,392,400,343,480,285.8C560,229,640,163,720,155.2C800,147,880,196,960,253.2C1040,310,1120,376,1200,343C1280,310,1360,180,1440,179.7C1520,180,1600,310,1680,302.2C1760,294,1840,147,1920,130.7C2000,114,2080,229,2160,253.2C2240,278,2320,212,2400,179.7C2480,147,2560,147,2640,147C2720,147,2800,147,2880,130.7C2960,114,3040,82,3120,57.2C3200,33,3280,16,3360,65.3C3440,114,3520,229,3600,285.8C3680,343,3760,343,3840,334.8C3920,327,4000,310,4080,285.8C4160,261,4240,229,4320,220.5C4400,212,4480,229,4560,196C4640,163,4720,82,4800,89.8C4880,98,4960,196,5040,253.2C5120,310,5200,327,5280,326.7C5360,327,5440,310,5520,294C5600,278,5680,261,5720,253.2L5760,245L5760,490L5720,490C5680,490,5600,490,5520,490C5440,490,5360,490,5280,490C5200,490,5120,490,5040,490C4960,490,4880,490,4800,490C4720,490,4640,490,4560,490C4480,490,4400,490,4320,490C4240,490,4160,490,4080,490C4000,490,3920,490,3840,490C3760,490,3680,490,3600,490C3520,490,3440,490,3360,490C3280,490,3200,490,3120,490C3040,490,2960,490,2880,490C2800,490,2720,490,2640,490C2560,490,2480,490,2400,490C2320,490,2240,490,2160,490C2080,490,2000,490,1920,490C1840,490,1760,490,1680,490C1600,490,1520,490,1440,490C1360,490,1280,490,1200,490C1120,490,1040,490,960,490C880,490,800,490,720,490C640,490,560,490,480,490C400,490,320,490,240,490C160,490,80,490,40,490L0,490Z"/></svg>