<?xml version="1.0" standalone="no"?>
<svg xmlns:xlink="http://www.w3.org/1999/xlink" id="wave" style="transform:rotate(0deg); transition: 0.3s" viewBox="0 0 1440 200" version="1.1" xmlns="http://www.w3.org/2000/svg"><defs><linearGradient id="sw-gradient-0" x1="0" x2="0" y1="1" y2="0"><stop stop-color="rgba(255, 188, 255, 0)" offset="0%"/><stop stop-color="rgba(255, 119, 255, 1)" offset="100%"/></linearGradient></defs><path style="transform:translate(0, 0px); opacity:1" fill="url(#sw-gradient-0)" d="M0,40L21.8,43.3C43.6,47,87,53,131,53.3C174.5,53,218,47,262,63.3C305.5,80,349,120,393,116.7C436.4,113,480,67,524,53.3C567.3,40,611,60,655,63.3C698.2,67,742,53,785,40C829.1,27,873,13,916,33.3C960,53,1004,107,1047,133.3C1090.9,160,1135,160,1178,163.3C1221.8,167,1265,173,1309,160C1352.7,147,1396,113,1440,113.3C1483.6,113,1527,147,1571,140C1614.5,133,1658,87,1702,60C1745.5,33,1789,27,1833,30C1876.4,33,1920,47,1964,50C2007.3,53,2051,47,2095,36.7C2138.2,27,2182,13,2225,30C2269.1,47,2313,93,2356,116.7C2400,140,2444,140,2487,136.7C2530.9,133,2575,127,2618,130C2661.8,133,2705,147,2749,136.7C2792.7,127,2836,93,2880,86.7C2923.6,80,2967,100,3011,106.7C3054.5,113,3098,107,3120,103.3L3141.8,100L3141.8,200L3120,200C3098.2,200,3055,200,3011,200C2967.3,200,2924,200,2880,200C2836.4,200,2793,200,2749,200C2705.5,200,2662,200,2618,200C2574.5,200,2531,200,2487,200C2443.6,200,2400,200,2356,200C2312.7,200,2269,200,2225,200C2181.8,200,2138,200,2095,200C2050.9,200,2007,200,1964,200C1920,200,1876,200,1833,200C1789.1,200,1745,200,1702,200C1658.2,200,1615,200,1571,200C1527.3,200,1484,200,1440,200C1396.4,200,1353,200,1309,200C1265.5,200,1222,200,1178,200C1134.5,200,1091,200,1047,200C1003.6,200,960,200,916,200C872.7,200,829,200,785,200C741.8,200,698,200,655,200C610.9,200,567,200,524,200C480,200,436,200,393,200C349.1,200,305,200,262,200C218.2,200,175,200,131,200C87.3,200,44,200,22,200L0,200Z"/><defs><linearGradient id="sw-gradient-1" x1="0" x2="0" y1="1" y2="0"><stop stop-color="rgba(145, 209, 207, 1)" offset="0%"/><stop stop-color="rgba(92, 166, 159, 1)" offset="100%"/></linearGradient></defs><path style="transform:translate(0, 50px); opacity:0.9" fill="url(#sw-gradient-1)" d="M0,120L21.8,126.7C43.6,133,87,147,131,140C174.5,133,218,107,262,96.7C305.5,87,349,93,393,96.7C436.4,100,480,100,524,90C567.3,80,611,60,655,63.3C698.2,67,742,93,785,103.3C829.1,113,873,107,916,90C960,73,1004,47,1047,56.7C1090.9,67,1135,113,1178,120C1221.8,127,1265,93,1309,93.3C1352.7,93,1396,127,1440,136.7C1483.6,147,1527,133,1571,133.3C1614.5,133,1658,147,1702,156.7C1745.5,167,1789,173,1833,160C1876.4,147,1920,113,1964,106.7C2007.3,100,2051,120,2095,120C2138.2,120,2182,100,2225,76.7C2269.1,53,2313,27,2356,26.7C2400,27,2444,53,2487,60C2530.9,67,2575,53,2618,40C2661.8,27,2705,13,2749,26.7C2792.7,40,2836,80,2880,90C2923.6,100,2967,80,3011,86.7C3054.5,93,3098,127,3120,143.3L3141.8,160L3141.8,200L3120,200C3098.2,200,3055,200,3011,200C2967.3,200,2924,200,2880,200C2836.4,200,2793,200,2749,200C2705.5,200,2662,200,2618,200C2574.5,200,2531,200,2487,200C2443.6,200,2400,200,2356,200C2312.7,200,2269,200,2225,200C2181.8,200,2138,200,2095,200C2050.9,200,2007,200,1964,200C1920,200,1876,200,1833,200C1789.1,200,1745,200,1702,200C1658.2,200,1615,200,1571,200C1527.3,200,1484,200,1440,200C1396.4,200,1353,200,1309,200C1265.5,200,1222,200,1178,200C1134.5,200,1091,200,1047,200C1003.6,200,960,200,916,200C872.7,200,829,200,785,200C741.8,200,698,200,655,200C610.9,200,567,200,524,200C480,200,436,200,393,200C349.1,200,305,200,262,200C218.2,200,175,200,131,200C87.3,200,44,200,22,200L0,200Z"/></svg>