<?xml version="1.0" standalone="no"?>
<svg xmlns:xlink="http://www.w3.org/1999/xlink" id="wave" style="transform:rotate(180deg); transition: 0.3s" viewBox="0 0 1440 490" version="1.1" xmlns="http://www.w3.org/2000/svg"><defs><linearGradient id="sw-gradient-0" x1="0" x2="0" y1="1" y2="0"><stop stop-color="rgba(255, 188, 255, 0)" offset="0%"/><stop stop-color="rgba(255, 119, 255, 1)" offset="100%"/></linearGradient></defs><path style="transform:translate(0, 0px); opacity:1" fill="url(#sw-gradient-0)" d="M0,98L80,98C160,98,320,98,480,98C640,98,800,98,960,130.7C1120,163,1280,229,1440,285.8C1600,343,1760,392,1920,375.7C2080,359,2240,278,2400,236.8C2560,196,2720,196,2880,163.3C3040,131,3200,65,3360,81.7C3520,98,3680,196,3840,236.8C4000,278,4160,261,4320,269.5C4480,278,4640,310,4800,294C4960,278,5120,212,5280,187.8C5440,163,5600,180,5760,228.7C5920,278,6080,359,6240,359.3C6400,359,6560,278,6720,212.3C6880,147,7040,98,7200,73.5C7360,49,7520,49,7680,65.3C7840,82,8000,114,8160,122.5C8320,131,8480,114,8640,130.7C8800,147,8960,196,9120,245C9280,294,9440,343,9600,359.3C9760,376,9920,359,10080,318.5C10240,278,10400,212,10560,228.7C10720,245,10880,343,11040,359.3C11200,376,11360,310,11440,277.7L11520,245L11520,490L11440,490C11360,490,11200,490,11040,490C10880,490,10720,490,10560,490C10400,490,10240,490,10080,490C9920,490,9760,490,9600,490C9440,490,9280,490,9120,490C8960,490,8800,490,8640,490C8480,490,8320,490,8160,490C8000,490,7840,490,7680,490C7520,490,7360,490,7200,490C7040,490,6880,490,6720,490C6560,490,6400,490,6240,490C6080,490,5920,490,5760,490C5600,490,5440,490,5280,490C5120,490,4960,490,4800,490C4640,490,4480,490,4320,490C4160,490,4000,490,3840,490C3680,490,3520,490,3360,490C3200,490,3040,490,2880,490C2720,490,2560,490,2400,490C2240,490,2080,490,1920,490C1760,490,1600,490,1440,490C1280,490,1120,490,960,490C800,490,640,490,480,490C320,490,160,490,80,490L0,490Z"/><defs><linearGradient id="sw-gradient-1" x1="0" x2="0" y1="1" y2="0"><stop stop-color="rgba(145, 209, 207, 1)" offset="0%"/><stop stop-color="rgba(92, 166, 159, 1)" offset="100%"/></linearGradient></defs><path style="transform:translate(0, 50px); opacity:0.9" fill="url(#sw-gradient-1)" d="M0,245L80,236.8C160,229,320,212,480,171.5C640,131,800,65,960,73.5C1120,82,1280,163,1440,187.8C1600,212,1760,180,1920,171.5C2080,163,2240,180,2400,163.3C2560,147,2720,98,2880,130.7C3040,163,3200,278,3360,310.3C3520,343,3680,294,3840,245C4000,196,4160,147,4320,171.5C4480,196,4640,294,4800,334.8C4960,376,5120,359,5280,326.7C5440,294,5600,245,5760,196C5920,147,6080,98,6240,89.8C6400,82,6560,114,6720,106.2C6880,98,7040,49,7200,73.5C7360,98,7520,196,7680,228.7C7840,261,8000,229,8160,204.2C8320,180,8480,163,8640,187.8C8800,212,8960,278,9120,302.2C9280,327,9440,310,9600,253.2C9760,196,9920,98,10080,57.2C10240,16,10400,33,10560,89.8C10720,147,10880,245,11040,277.7C11200,310,11360,278,11440,261.3L11520,245L11520,490L11440,490C11360,490,11200,490,11040,490C10880,490,10720,490,10560,490C10400,490,10240,490,10080,490C9920,490,9760,490,9600,490C9440,490,9280,490,9120,490C8960,490,8800,490,8640,490C8480,490,8320,490,8160,490C8000,490,7840,490,7680,490C7520,490,7360,490,7200,490C7040,490,6880,490,6720,490C6560,490,6400,490,6240,490C6080,490,5920,490,5760,490C5600,490,5440,490,5280,490C5120,490,4960,490,4800,490C4640,490,4480,490,4320,490C4160,490,4000,490,3840,490C3680,490,3520,490,3360,490C3200,490,3040,490,2880,490C2720,490,2560,490,2400,490C2240,490,2080,490,1920,490C1760,490,1600,490,1440,490C1280,490,1120,490,960,490C800,490,640,490,480,490C320,490,160,490,80,490L0,490Z"/></svg>