<?xml version="1.0" standalone="no"?>
<svg xmlns:xlink="http://www.w3.org/1999/xlink" id="wave" style="transform:rotate(180deg); transition: 0.3s" viewBox="0 0 1440 490" version="1.1" xmlns="http://www.w3.org/2000/svg"><defs><linearGradient id="sw-gradient-0" x1="0" x2="0" y1="1" y2="0"><stop stop-color="rgba(255, 188, 255, 0)" offset="0%"/><stop stop-color="rgba(255, 119, 255, 1)" offset="100%"/></linearGradient></defs><path style="transform:translate(0, 0px); opacity:1" fill="url(#sw-gradient-0)" d="M0,147L80,155.2C160,163,320,180,480,155.2C640,131,800,65,960,65.3C1120,65,1280,131,1440,130.7C1600,131,1760,65,1920,81.7C2080,98,2240,196,2400,220.5C2560,245,2720,196,2880,147C3040,98,3200,49,3360,89.8C3520,131,3680,261,3840,277.7C4000,294,4160,196,4320,130.7C4480,65,4640,33,4800,49C4960,65,5120,131,5280,171.5C5440,212,5600,229,5760,228.7C5920,229,6080,212,6240,204.2C6400,196,6560,196,6720,228.7C6880,261,7040,327,7200,351.2C7360,376,7520,359,7680,334.8C7840,310,8000,278,8160,261.3C8320,245,8480,245,8640,269.5C8800,294,8960,343,9120,351.2C9280,359,9440,327,9600,285.8C9760,245,9920,196,10080,163.3C10240,131,10400,114,10560,163.3C10720,212,10880,327,11040,375.7C11200,425,11360,408,11440,400.2L11520,392L11520,490L11440,490C11360,490,11200,490,11040,490C10880,490,10720,490,10560,490C10400,490,10240,490,10080,490C9920,490,9760,490,9600,490C9440,490,9280,490,9120,490C8960,490,8800,490,8640,490C8480,490,8320,490,8160,490C8000,490,7840,490,7680,490C7520,490,7360,490,7200,490C7040,490,6880,490,6720,490C6560,490,6400,490,6240,490C6080,490,5920,490,5760,490C5600,490,5440,490,5280,490C5120,490,4960,490,4800,490C4640,490,4480,490,4320,490C4160,490,4000,490,3840,490C3680,490,3520,490,3360,490C3200,490,3040,490,2880,490C2720,490,2560,490,2400,490C2240,490,2080,490,1920,490C1760,490,1600,490,1440,490C1280,490,1120,490,960,490C800,490,640,490,480,490C320,490,160,490,80,490L0,490Z"/><defs><linearGradient id="sw-gradient-1" x1="0" x2="0" y1="1" y2="0"><stop stop-color="rgba(145, 209, 207, 1)" offset="0%"/><stop stop-color="rgba(92, 166, 159, 1)" offset="100%"/></linearGradient></defs><path style="transform:translate(0, 50px); opacity:0.9" fill="url(#sw-gradient-1)" d="M0,147L80,196C160,245,320,343,480,367.5C640,392,800,343,960,285.8C1120,229,1280,163,1440,155.2C1600,147,1760,196,1920,253.2C2080,310,2240,376,2400,343C2560,310,2720,180,2880,179.7C3040,180,3200,310,3360,302.2C3520,294,3680,147,3840,130.7C4000,114,4160,229,4320,253.2C4480,278,4640,212,4800,179.7C4960,147,5120,147,5280,147C5440,147,5600,147,5760,130.7C5920,114,6080,82,6240,57.2C6400,33,6560,16,6720,65.3C6880,114,7040,229,7200,285.8C7360,343,7520,343,7680,334.8C7840,327,8000,310,8160,285.8C8320,261,8480,229,8640,220.5C8800,212,8960,229,9120,196C9280,163,9440,82,9600,89.8C9760,98,9920,196,10080,253.2C10240,310,10400,327,10560,326.7C10720,327,10880,310,11040,294C11200,278,11360,261,11440,253.2L11520,245L11520,490L11440,490C11360,490,11200,490,11040,490C10880,490,10720,490,10560,490C10400,490,10240,490,10080,490C9920,490,9760,490,9600,490C9440,490,9280,490,9120,490C8960,490,8800,490,8640,490C8480,490,8320,490,8160,490C8000,490,7840,490,7680,490C7520,490,7360,490,7200,490C7040,490,6880,490,6720,490C6560,490,6400,490,6240,490C6080,490,5920,490,5760,490C5600,490,5440,490,5280,490C5120,490,4960,490,4800,490C4640,490,4480,490,4320,490C4160,490,4000,490,3840,490C3680,490,3520,490,3360,490C3200,490,3040,490,2880,490C2720,490,2560,490,2400,490C2240,490,2080,490,1920,490C1760,490,1600,490,1440,490C1280,490,1120,490,960,490C800,490,640,490,480,490C320,490,160,490,80,490L0,490Z"/></svg>