<?xml version="1.0" standalone="no"?>
<svg xmlns:xlink="http://www.w3.org/1999/xlink" id="wave" style="transform:rotate(0deg); transition: 0.3s" viewBox="0 0 1440 490" version="1.1" xmlns="http://www.w3.org/2000/svg"><defs><linearGradient id="sw-gradient-0" x1="0" x2="0" y1="1" y2="0"><stop stop-color="rgba(255, 188, 255, 0)" offset="0%"/><stop stop-color="rgba(255, 119, 255, 1)" offset="100%"/></linearGradient></defs><path style="transform:translate(0, 0px); opacity:1" fill="url(#sw-gradient-0)" d="M0,294L80,253.2C160,212,320,131,480,89.8C640,49,800,49,960,89.8C1120,131,1280,212,1440,269.5C1600,327,1760,359,1920,359.3C2080,359,2240,327,2400,318.5C2560,310,2720,327,2880,294C3040,261,3200,180,3360,155.2C3520,131,3680,163,3840,155.2C4000,147,4160,98,4320,138.8C4480,180,4640,310,4800,318.5C4960,327,5120,212,5280,147C5440,82,5600,65,5760,114.3C5920,163,6080,278,6240,318.5C6400,359,6560,327,6720,294C6880,261,7040,229,7200,245C7360,261,7520,327,7680,343C7840,359,8000,327,8160,261.3C8320,196,8480,98,8640,106.2C8800,114,8960,229,9120,261.3C9280,294,9440,245,9600,245C9760,245,9920,294,10080,294C10240,294,10400,245,10560,204.2C10720,163,10880,131,11040,106.2C11200,82,11360,65,11440,57.2L11520,49L11520,490L11440,490C11360,490,11200,490,11040,490C10880,490,10720,490,10560,490C10400,490,10240,490,10080,490C9920,490,9760,490,9600,490C9440,490,9280,490,9120,490C8960,490,8800,490,8640,490C8480,490,8320,490,8160,490C8000,490,7840,490,7680,490C7520,490,7360,490,7200,490C7040,490,6880,490,6720,490C6560,490,6400,490,6240,490C6080,490,5920,490,5760,490C5600,490,5440,490,5280,490C5120,490,4960,490,4800,490C4640,490,4480,490,4320,490C4160,490,4000,490,3840,490C3680,490,3520,490,3360,490C3200,490,3040,490,2880,490C2720,490,2560,490,2400,490C2240,490,2080,490,1920,490C1760,490,1600,490,1440,490C1280,490,1120,490,960,490C800,490,640,490,480,490C320,490,160,490,80,490L0,490Z"/><defs><linearGradient id="sw-gradient-1" x1="0" x2="0" y1="1" y2="0"><stop stop-color="rgba(145, 209, 207, 1)" offset="0%"/><stop stop-color="rgba(92, 166, 159, 1)" offset="100%"/></linearGradient></defs><path style="transform:translate(0, 50px); opacity:0.9" fill="url(#sw-gradient-1)" d="M0,147L80,155.2C160,163,320,180,480,212.3C640,245,800,294,960,334.8C1120,376,1280,408,1440,424.7C1600,441,1760,441,1920,441C2080,441,2240,441,2400,392C2560,343,2720,245,2880,196C3040,147,3200,147,3360,130.7C3520,114,3680,82,3840,81.7C4000,82,4160,114,4320,138.8C4480,163,4640,180,4800,204.2C4960,229,5120,261,5280,269.5C5440,278,5600,261,5760,285.8C5920,310,6080,376,6240,375.7C6400,376,6560,310,6720,294C6880,278,7040,310,7200,334.8C7360,359,7520,376,7680,343C7840,310,8000,229,8160,163.3C8320,98,8480,49,8640,32.7C8800,16,8960,33,9120,57.2C9280,82,9440,114,9600,106.2C9760,98,9920,49,10080,32.7C10240,16,10400,33,10560,73.5C10720,114,10880,180,11040,236.8C11200,294,11360,343,11440,367.5L11520,392L11520,490L11440,490C11360,490,11200,490,11040,490C10880,490,10720,490,10560,490C10400,490,10240,490,10080,490C9920,490,9760,490,9600,490C9440,490,9280,490,9120,490C8960,490,8800,490,8640,490C8480,490,8320,490,8160,490C8000,490,7840,490,7680,490C7520,490,7360,490,7200,490C7040,490,6880,490,6720,490C6560,490,6400,490,6240,490C6080,490,5920,490,5760,490C5600,490,5440,490,5280,490C5120,490,4960,490,4800,490C4640,490,4480,490,4320,490C4160,490,4000,490,3840,490C3680,490,3520,490,3360,490C3200,490,3040,490,2880,490C2720,490,2560,490,2400,490C2240,490,2080,490,1920,490C1760,490,1600,490,1440,490C1280,490,1120,490,960,490C800,490,640,490,480,490C320,490,160,490,80,490L0,490Z"/></svg>