<?xml version="1.0" standalone="no"?>
<svg xmlns:xlink="http://www.w3.org/1999/xlink" id="wave" style="transform:rotate(180deg); transition: 0.3s" viewBox="0 0 1440 290" version="1.1" xmlns="http://www.w3.org/2000/svg"><defs><linearGradient id="sw-gradient-0" x1="0" x2="0" y1="1" y2="0"><stop stop-color="rgba(131, 180, 186, 1)" offset="0%"/><stop stop-color="rgba(131, 180, 186, 1)" offset="100%"/></linearGradient></defs><path style="transform:translate(0, 0px); opacity:1" fill="url(#sw-gradient-0)" d="M0,116L48,111.2C96,106,192,97,288,87C384,77,480,68,576,53.2C672,39,768,19,864,9.7C960,0,1056,0,1152,19.3C1248,39,1344,77,1440,96.7C1536,116,1632,116,1728,120.8C1824,126,1920,135,2016,159.5C2112,184,2208,222,2304,207.8C2400,193,2496,126,2592,96.7C2688,68,2784,77,2880,67.7C2976,58,3072,29,3168,29C3264,29,3360,58,3456,96.7C3552,135,3648,184,3744,183.7C3840,184,3936,135,4032,116C4128,97,4224,106,4320,130.5C4416,155,4512,193,4608,193.3C4704,193,4800,155,4896,130.5C4992,106,5088,97,5184,77.3C5280,58,5376,29,5472,48.3C5568,68,5664,135,5760,145C5856,155,5952,106,6048,91.8C6144,77,6240,97,6336,106.3C6432,116,6528,116,6624,116C6720,116,6816,116,6864,116L6912,116L6912,290L6864,290C6816,290,6720,290,6624,290C6528,290,6432,290,6336,290C6240,290,6144,290,6048,290C5952,290,5856,290,5760,290C5664,290,5568,290,5472,290C5376,290,5280,290,5184,290C5088,290,4992,290,4896,290C4800,290,4704,290,4608,290C4512,290,4416,290,4320,290C4224,290,4128,290,4032,290C3936,290,3840,290,3744,290C3648,290,3552,290,3456,290C3360,290,3264,290,3168,290C3072,290,2976,290,2880,290C2784,290,2688,290,2592,290C2496,290,2400,290,2304,290C2208,290,2112,290,2016,290C1920,290,1824,290,1728,290C1632,290,1536,290,1440,290C1344,290,1248,290,1152,290C1056,290,960,290,864,290C768,290,672,290,576,290C480,290,384,290,288,290C192,290,96,290,48,290L0,290Z"/></svg>