<?xml version="1.0" standalone="no"?>
<svg xmlns:xlink="http://www.w3.org/1999/xlink" id="wave" style="transform:rotate(180deg); transition: 0.3s" viewBox="0 0 1440 290" version="1.1" xmlns="http://www.w3.org/2000/svg"><defs><linearGradient id="sw-gradient-0" x1="0" x2="0" y1="1" y2="0"><stop stop-color="rgba(149, 207, 205, 1)" offset="0%"/><stop stop-color="rgba(131, 180, 186, 1)" offset="100%"/></linearGradient></defs><path style="transform:translate(0, 0px); opacity:1" fill="url(#sw-gradient-0)" d="M0,203L48,178.8C96,155,192,106,288,72.5C384,39,480,19,576,24.2C672,29,768,58,864,77.3C960,97,1056,106,1152,101.5C1248,97,1344,77,1440,96.7C1536,116,1632,174,1728,178.8C1824,184,1920,135,2016,101.5C2112,68,2208,48,2304,77.3C2400,106,2496,184,2592,212.7C2688,242,2784,222,2880,193.3C2976,164,3072,126,3168,101.5C3264,77,3360,68,3456,82.2C3552,97,3648,135,3744,130.5C3840,126,3936,77,4032,62.8C4128,48,4224,68,4320,106.3C4416,145,4512,203,4608,232C4704,261,4800,261,4896,236.8C4992,213,5088,164,5184,145C5280,126,5376,135,5472,130.5C5568,126,5664,106,5760,82.2C5856,58,5952,29,6048,14.5C6144,0,6240,0,6336,38.7C6432,77,6528,155,6624,198.2C6720,242,6816,251,6864,256.2L6912,261L6912,290L6864,290C6816,290,6720,290,6624,290C6528,290,6432,290,6336,290C6240,290,6144,290,6048,290C5952,290,5856,290,5760,290C5664,290,5568,290,5472,290C5376,290,5280,290,5184,290C5088,290,4992,290,4896,290C4800,290,4704,290,4608,290C4512,290,4416,290,4320,290C4224,290,4128,290,4032,290C3936,290,3840,290,3744,290C3648,290,3552,290,3456,290C3360,290,3264,290,3168,290C3072,290,2976,290,2880,290C2784,290,2688,290,2592,290C2496,290,2400,290,2304,290C2208,290,2112,290,2016,290C1920,290,1824,290,1728,290C1632,290,1536,290,1440,290C1344,290,1248,290,1152,290C1056,290,960,290,864,290C768,290,672,290,576,290C480,290,384,290,288,290C192,290,96,290,48,290L0,290Z"/></svg>