<?xml version="1.0" standalone="no"?>
<svg xmlns:xlink="http://www.w3.org/1999/xlink" id="wave" style="transform:rotate(180deg); transition: 0.3s" viewBox="0 0 1440 450" version="1.1" xmlns="http://www.w3.org/2000/svg"><defs><linearGradient id="sw-gradient-0" x1="0" x2="0" y1="1" y2="0"><stop stop-color="rgba(255, 188, 255, 0)" offset="0%"/><stop stop-color="rgba(255, 119, 255, 1)" offset="100%"/></linearGradient></defs><path style="transform:translate(0, 0px); opacity:1" fill="url(#sw-gradient-0)" d="M0,225L48,232.5C96,240,192,255,288,262.5C384,270,480,270,576,247.5C672,225,768,180,864,142.5C960,105,1056,75,1152,67.5C1248,60,1344,75,1440,82.5C1536,90,1632,90,1728,75C1824,60,1920,30,2016,52.5C2112,75,2208,150,2304,165C2400,180,2496,135,2592,135C2688,135,2784,180,2880,187.5C2976,195,3072,165,3168,157.5C3264,150,3360,165,3456,195C3552,225,3648,270,3744,262.5C3840,255,3936,195,4032,195C4128,195,4224,255,4320,262.5C4416,270,4512,225,4608,180C4704,135,4800,90,4896,75C4992,60,5088,75,5184,135C5280,195,5376,300,5472,285C5568,270,5664,135,5760,112.5C5856,90,5952,180,6048,225C6144,270,6240,270,6336,292.5C6432,315,6528,360,6624,322.5C6720,285,6816,165,6864,105L6912,45L6912,450L6864,450C6816,450,6720,450,6624,450C6528,450,6432,450,6336,450C6240,450,6144,450,6048,450C5952,450,5856,450,5760,450C5664,450,5568,450,5472,450C5376,450,5280,450,5184,450C5088,450,4992,450,4896,450C4800,450,4704,450,4608,450C4512,450,4416,450,4320,450C4224,450,4128,450,4032,450C3936,450,3840,450,3744,450C3648,450,3552,450,3456,450C3360,450,3264,450,3168,450C3072,450,2976,450,2880,450C2784,450,2688,450,2592,450C2496,450,2400,450,2304,450C2208,450,2112,450,2016,450C1920,450,1824,450,1728,450C1632,450,1536,450,1440,450C1344,450,1248,450,1152,450C1056,450,960,450,864,450C768,450,672,450,576,450C480,450,384,450,288,450C192,450,96,450,48,450L0,450Z"/><defs><linearGradient id="sw-gradient-1" x1="0" x2="0" y1="1" y2="0"><stop stop-color="rgba(145, 209, 207, 1)" offset="0%"/><stop stop-color="rgba(92, 166, 159, 1)" offset="100%"/></linearGradient></defs><path style="transform:translate(0, 50px); opacity:0.9" fill="url(#sw-gradient-1)" d="M0,360L48,337.5C96,315,192,270,288,225C384,180,480,135,576,97.5C672,60,768,30,864,15C960,0,1056,0,1152,37.5C1248,75,1344,150,1440,150C1536,150,1632,75,1728,105C1824,135,1920,270,2016,307.5C2112,345,2208,285,2304,217.5C2400,150,2496,75,2592,105C2688,135,2784,270,2880,330C2976,390,3072,375,3168,352.5C3264,330,3360,300,3456,240C3552,180,3648,90,3744,67.5C3840,45,3936,90,4032,90C4128,90,4224,45,4320,60C4416,75,4512,150,4608,172.5C4704,195,4800,165,4896,127.5C4992,90,5088,45,5184,22.5C5280,0,5376,0,5472,60C5568,120,5664,240,5760,255C5856,270,5952,180,6048,180C6144,180,6240,270,6336,277.5C6432,285,6528,210,6624,150C6720,90,6816,45,6864,22.5L6912,0L6912,450L6864,450C6816,450,6720,450,6624,450C6528,450,6432,450,6336,450C6240,450,6144,450,6048,450C5952,450,5856,450,5760,450C5664,450,5568,450,5472,450C5376,450,5280,450,5184,450C5088,450,4992,450,4896,450C4800,450,4704,450,4608,450C4512,450,4416,450,4320,450C4224,450,4128,450,4032,450C3936,450,3840,450,3744,450C3648,450,3552,450,3456,450C3360,450,3264,450,3168,450C3072,450,2976,450,2880,450C2784,450,2688,450,2592,450C2496,450,2400,450,2304,450C2208,450,2112,450,2016,450C1920,450,1824,450,1728,450C1632,450,1536,450,1440,450C1344,450,1248,450,1152,450C1056,450,960,450,864,450C768,450,672,450,576,450C480,450,384,450,288,450C192,450,96,450,48,450L0,450Z"/></svg>