<?xml version="1.0" standalone="no"?>
<svg xmlns:xlink="http://www.w3.org/1999/xlink" id="wave" style="transform:rotate(180deg); transition: 0.3s" viewBox="0 0 1440 490" version="1.1" xmlns="http://www.w3.org/2000/svg"><defs><linearGradient id="sw-gradient-0" x1="0" x2="0" y1="1" y2="0"><stop stop-color="rgba(255, 188, 255, 0)" offset="0%"/><stop stop-color="rgba(255, 119, 255, 1)" offset="100%"/></linearGradient></defs><path style="transform:translate(0, 0px); opacity:1" fill="url(#sw-gradient-0)" d="M0,147L48,122.5C96,98,192,49,288,24.5C384,0,480,0,576,40.8C672,82,768,163,864,196C960,229,1056,212,1152,236.8C1248,261,1344,327,1440,302.2C1536,278,1632,163,1728,155.2C1824,147,1920,245,2016,310.3C2112,376,2208,408,2304,351.2C2400,294,2496,147,2592,98C2688,49,2784,98,2880,122.5C2976,147,3072,147,3168,179.7C3264,212,3360,278,3456,326.7C3552,376,3648,408,3744,367.5C3840,327,3936,212,4032,212.3C4128,212,4224,327,4320,351.2C4416,376,4512,310,4608,277.7C4704,245,4800,245,4896,212.3C4992,180,5088,114,5184,147C5280,180,5376,310,5472,310.3C5568,310,5664,180,5760,179.7C5856,180,5952,310,6048,310.3C6144,310,6240,180,6336,130.7C6432,82,6528,114,6624,155.2C6720,196,6816,245,6864,269.5L6912,294L6912,490L6864,490C6816,490,6720,490,6624,490C6528,490,6432,490,6336,490C6240,490,6144,490,6048,490C5952,490,5856,490,5760,490C5664,490,5568,490,5472,490C5376,490,5280,490,5184,490C5088,490,4992,490,4896,490C4800,490,4704,490,4608,490C4512,490,4416,490,4320,490C4224,490,4128,490,4032,490C3936,490,3840,490,3744,490C3648,490,3552,490,3456,490C3360,490,3264,490,3168,490C3072,490,2976,490,2880,490C2784,490,2688,490,2592,490C2496,490,2400,490,2304,490C2208,490,2112,490,2016,490C1920,490,1824,490,1728,490C1632,490,1536,490,1440,490C1344,490,1248,490,1152,490C1056,490,960,490,864,490C768,490,672,490,576,490C480,490,384,490,288,490C192,490,96,490,48,490L0,490Z"/><defs><linearGradient id="sw-gradient-1" x1="0" x2="0" y1="1" y2="0"><stop stop-color="rgba(145, 209, 207, 1)" offset="0%"/><stop stop-color="rgba(92, 166, 159, 1)" offset="100%"/></linearGradient></defs><path style="transform:translate(0, 50px); opacity:0.9" fill="url(#sw-gradient-1)" d="M0,0L48,40.8C96,82,192,163,288,228.7C384,294,480,343,576,310.3C672,278,768,163,864,147C960,131,1056,212,1152,228.7C1248,245,1344,196,1440,187.8C1536,180,1632,212,1728,228.7C1824,245,1920,245,2016,220.5C2112,196,2208,147,2304,138.8C2400,131,2496,163,2592,220.5C2688,278,2784,359,2880,383.8C2976,408,3072,376,3168,318.5C3264,261,3360,180,3456,179.7C3552,180,3648,261,3744,277.7C3840,294,3936,245,4032,220.5C4128,196,4224,196,4320,187.8C4416,180,4512,163,4608,171.5C4704,180,4800,212,4896,204.2C4992,196,5088,147,5184,114.3C5280,82,5376,65,5472,98C5568,131,5664,212,5760,204.2C5856,196,5952,98,6048,122.5C6144,147,6240,294,6336,302.2C6432,310,6528,180,6624,171.5C6720,163,6816,278,6864,334.8L6912,392L6912,490L6864,490C6816,490,6720,490,6624,490C6528,490,6432,490,6336,490C6240,490,6144,490,6048,490C5952,490,5856,490,5760,490C5664,490,5568,490,5472,490C5376,490,5280,490,5184,490C5088,490,4992,490,4896,490C4800,490,4704,490,4608,490C4512,490,4416,490,4320,490C4224,490,4128,490,4032,490C3936,490,3840,490,3744,490C3648,490,3552,490,3456,490C3360,490,3264,490,3168,490C3072,490,2976,490,2880,490C2784,490,2688,490,2592,490C2496,490,2400,490,2304,490C2208,490,2112,490,2016,490C1920,490,1824,490,1728,490C1632,490,1536,490,1440,490C1344,490,1248,490,1152,490C1056,490,960,490,864,490C768,490,672,490,576,490C480,490,384,490,288,490C192,490,96,490,48,490L0,490Z"/></svg>